 
 <svg width="0" height="0" class="hidden">

 <symbol xmlns="http://www.w3.org/2000/svg" viewBox="0 0 329.269 329" id="close_icon">
    <path d="M194.8 164.77L323.013 36.555c8.343-8.34 8.343-21.825 0-30.164-8.34-8.34-21.825-8.34-30.164 0L164.633 134.605 36.422 6.391c-8.344-8.34-21.824-8.34-30.164 0-8.344 8.34-8.344 21.824 0 30.164l128.21 128.215L6.259 292.984c-8.344 8.34-8.344 21.825 0 30.164a21.266 21.266 0 0015.082 6.25c5.46 0 10.922-2.09 15.082-6.25l128.21-128.214 128.216 128.214a21.273 21.273 0 0015.082 6.25c5.46 0 10.922-2.09 15.082-6.25 8.343-8.34 8.343-21.824 0-30.164zm0 0"></path>
  </symbol>
  <symbol xmlns="http://www.w3.org/2000/svg" viewBox="0 0 183.5 30.382" id="logo-pishro">
    <path d="M174.676 19.463h8.825v7.963h-8.825zm-9.863-9.531h18.688v8.025h-18.688zM155.216.286h28.285V8.31h-28.285z" fill="#64a51c"></path>
    <g fill="#002c2e">
      <path d="M56.338 27.465h2.938v2.917h-2.938zm62.037-9.367a9.609 9.609 0 01-3.762 7.2l1.74 2.418a12.6 12.6 0 005-9.614v-6.309h-2.98zm-32.77 0a9.609 9.609 0 01-3.762 7.2l1.74 2.418a12.6 12.6 0 005-9.614v-6.309h-2.98zm50.76-10.465h-1.728l4.8-5.712L137.188.03l-6.406 7.619.026.021v2.9h5.554a2 2 0 012 2v2.906a2 2 0 01-2 2h-6.775a2 2 0 01-2-2V1.892h-2.931v13.587a4.944 4.944 0 004.938 4.938h6.775a4.944 4.944 0 004.938-4.938v-2.906a4.944 4.944 0 00-4.942-4.94zm-26.718-.034h-1.727l4.8-5.713-2.249-1.89-6.406 7.619.026.021v2.9h5.556a2 2 0 012 2v2.943a2 2 0 01-2 2h-6.263a3 3 0 01-2.994-2.964v-2.722h-2.98v6.306a9.609 9.609 0 01-3.762 7.2l1.74 2.418a12.339 12.339 0 004.868-8.2 5.894 5.894 0 003.127.9h6.264a4.944 4.944 0 004.939-4.938v-2.937a4.945 4.945 0 00-4.939-4.943z"></path>
      <path d="M105.906.366l-1.782 2.12-.042 3.473 3.51-4.175zM5.6 9.846a4.271 4.271 0 00-3.37 1.059 8.067 8.067 0 00-2.229 5.648 4.069 4.069 0 002.251 3.8 8.113 8.113 0 003.835.631 8.687 8.687 0 01-3.149 4.35l1.74 2.38c4.844-3.332 5.054-9.463 5.053-9.7v-1.747c.088-2.229-.682-6.054-4.131-6.421zm1.2 6.326v1.808a6.509 6.509 0 01-3.2-.241l.012-.009-.123-.044a1.145 1.145 0 01-.546-1.088 5.341 5.341 0 011.241-3.492 1.329 1.329 0 011.11-.336c1.552.163 1.503 3.374 1.501 3.402zM97.334 5.959h2.938v2.917h-2.938zM51.975 23.586h7.261v2.938h-7.261zm-15.64 0h7.261v2.938h-7.261zM26.809 5.007h2.938v2.917h-2.938zm-4.323 3.859h7.261v2.938h-7.261zm69.06-6.969h2.938v18.479h-2.938z"></path>
      <path d="M56.338 15.494a2 2 0 01-2 2h-2.342a3.09 3.09 0 01-3.087-3.088v-3.84h-2.938v2.662a4.27 4.27 0 01-4.266 4.266H20.458a3.678 3.678 0 01-3.673-3.674v-2.027h-2.99v6.305a9.609 9.609 0 01-3.762 7.2l1.74 2.418a12.412 12.412 0 004.91-8.472 6.572 6.572 0 003.775 1.191h21.246a7.182 7.182 0 005.428-2.482 6.013 6.013 0 004.863 2.482h2.342a4.944 4.944 0 004.939-4.938V9.44h-2.938zm25.558 3.402a4.137 4.137 0 00-4.133-4.132h-.646a1.084 1.084 0 01-1.082-1.082v-.491a1.083 1.083 0 011.082-1.082h4.714V9.171h-4.715a4.025 4.025 0 00-4.02 4.02v.491a4.025 4.025 0 004.02 4.02h.646a1.2 1.2 0 011.2 1.2v.666a2.5 2.5 0 01-2.493 2.493h-5.45a2 2 0 01-2-2v-6.577h-2.938v6.571a4.944 4.944 0 004.939 4.938h5.45a5.437 5.437 0 005.431-5.431z"></path>
    </g>
  </symbol>

  <symbol xmlns="http://www.w3.org/2000/svg" viewBox="0 0 405.272 405.272" id="check_icon">
    <path d="M393.401 124.425L179.603 338.208c-15.832 15.835-41.514 15.835-57.361 0L11.878 227.836c-15.838-15.835-15.838-41.52 0-57.358 15.841-15.841 41.521-15.841 57.355-.006l81.698 81.699L336.037 67.064c15.841-15.841 41.523-15.829 57.358 0 15.835 15.838 15.835 41.514.006 57.361z"></path>
  </symbol>
  </svg>